<svg id="Layer_1" data-name="Layer 1" xmlns="http://www.w3.org/2000/svg" viewBox="0 0 692.82 800"><defs><style>.cls-1{fill:#279eff;}.cls-2{fill:#80ccff;}</style></defs><title>ACE Color</title><polygon class="cls-1" points="692.82 600 346.41 800 0 600 132.32 523.6 346.41 647.21 560.5 523.6 692.82 600"/><polygon class="cls-1" points="560.5 276.39 560.5 523.6 478.71 476.39 478.71 323.61 346.41 247.23 346.41 152.79 560.5 276.39"/><polygon class="cls-2" points="560.5 523.6 346.41 647.21 132.32 523.6 214.11 476.39 346.41 552.76 478.71 476.39 560.5 523.6"/><polygon class="cls-2" points="478.71 323.61 478.71 476.39 428.17 447.21 428.19 447.21 428.19 352.79 346.41 305.57 346.41 247.23 478.71 323.61"/><polygon class="cls-1" points="428.17 447.21 346.41 494.42 264.65 447.21 295.89 429.18 346.41 458.34 396.93 429.18 428.17 447.21"/><polygon class="cls-1" points="396.93 370.84 396.93 429.18 377.66 418.05 377.66 381.94 346.41 363.91 346.41 341.66 396.93 370.84"/><polygon class="cls-2" points="396.93 429.18 346.41 458.34 295.89 429.18 315.17 418.05 346.41 436.08 377.66 418.05 396.93 429.18"/><polygon class="cls-2" points="346.41 305.57 346.41 341.66 295.89 370.84 295.89 429.18 264.65 447.21 264.63 447.21 264.63 352.79 346.41 305.57"/><polygon class="cls-1" points="346.41 247.23 346.41 305.57 264.63 352.79 264.63 447.21 264.65 447.21 214.11 476.39 214.11 323.61 346.41 247.23"/><polygon class="cls-2" points="346.41 0 346.41 152.79 132.32 276.39 132.32 523.6 0 600 0 200 346.41 0"/></svg>